<svg width="120" height="198" viewBox="0 0 120 198" fill="none" xmlns="http://www.w3.org/2000/svg">
<circle cx="60" cy="60" r="58.5" stroke="#05732F" stroke-width="3"/>
<circle cx="60" cy="60" r="45" fill="#05732F"/>
<path d="M60.0251 61.9711L46.3773 78.0799C45.434 79.1933 43.9087 79.1933 42.9754 78.0799L40.7075 75.403C39.7642 74.2896 39.7642 72.4892 40.7075 71.3876L50.3813 59.9693L40.7075 48.551C39.7642 47.4376 39.7642 45.6372 40.7075 44.5356L42.9654 41.8351C43.9087 40.7216 45.434 40.7216 46.3673 41.8351L60.0151 57.9439C60.9684 59.0573 60.9684 60.8577 60.0251 61.9711ZM79.2925 57.9439L65.6448 41.8351C64.7015 40.7216 63.1761 40.7216 62.2429 41.8351L59.9749 44.512C59.0316 45.6254 59.0316 47.4258 59.9749 48.5273L69.6488 59.9456L59.9749 71.3639C59.0316 72.4773 59.0316 74.2777 59.9749 75.3793L62.2429 78.0562C63.1862 79.1696 64.7115 79.1696 65.6448 78.0562L79.2925 61.9474C80.2358 60.8577 80.2358 59.0573 79.2925 57.9439Z" fill="white"/>
<line x1="61.5" y1="119" x2="61.5" y2="191" stroke="#05732F" stroke-width="3"/>
<circle cx="62" cy="191" r="7" fill="#05732F"/>
</svg>
